<svg xmlns="http://www.w3.org/2000/svg" viewBox="0 0 450.5 450.5"><path d="M189.1 273.7v-72.4h-.5l-29.1 72.4h-11.1l-29.2-72.4h-.5v72.4H105v-98.4h17.3l31.3 78.4h.5l31.2-78.4h17.4v98.4h-13.6zm89.3 0h-13.9v-12.1h-.3c-3.9 8.6-11.1 13.4-21.8 13.4-15.3 0-24.7-10.2-24.7-26.6V202h14.5v43.6c0 10.9 5.1 16.8 15.1 16.8 10.5 0 16.8-7.4 16.8-18.5V202h14.5l-.2 71.7zm39.6-73c16.4 0 27.1 9.3 27.5 22.5h-13.6c-.8-7-5.8-11.3-13.9-11.3-7.8 0-13.1 3.9-13.1 9.6 0 4.5 3.2 7.6 10.8 9.3l11.5 2.7c14.4 3.4 19.9 9.1 19.9 19.5 0 13.1-12 22.1-28.6 22.1-17.6 0-28.2-8.8-29.5-22.4h14.3c1.3 7.5 6.4 11.2 15.2 11.2 8.7 0 14.1-3.7 14.1-9.5 0-4.6-2.6-7.4-10.3-9.1l-11.5-2.7c-13.4-3.1-20-9.7-20-20.1 0-13 11-21.8 27.2-21.8zm39.2-17.6c0-4.7 3.8-8.5 8.4-8.5 4.6 0 8.3 3.8 8.3 8.5 0 4.6-3.7 8.5-8.3 8.5-2.3 0-4.3-.9-5.9-2.5-1.7-1.7-2.5-3.7-2.5-6zm1.1 18.9h14.5v71.7h-14.5V202zm75.5 24.7c-1.5-7.6-7.1-13.7-16.5-13.7-11.2 0-18.6 9.5-18.6 24.9 0 15.8 7.4 24.9 18.7 24.9 8.9 0 14.7-5 16.4-13.3h13.9c-1.5 15.3-13.5 25.6-30.5 25.6-20.2 0-33.3-14.1-33.3-37.2 0-22.8 13.1-37.2 33.2-37.2 18.2 0 29.2 11.9 30.5 26h-13.8zm-373-41.8c-3.7 4.5-9.7 8-15.6 7.5-.8-6 2.2-12.5 5.6-16.4 3.7-4.6 10.2-7.9 15.5-8.2.6 6.4-1.9 12.5-5.5 17.1zm5.3 8.7c3.3.3 13 1.3 19.2 10.6-.5.4-11.5 6.8-11.3 20.3.1 16.1 13.9 21.5 14 21.7-.1.4-2.2 7.6-7.2 15.1-4.4 6.6-8.9 13-16.1 13.1-7 .1-9.3-4.2-17.3-4.2s-10.6 4.1-17.1 4.3c-7 .3-12.2-7-16.6-13.5-9-13.2-15.8-37.4-6.6-53.6 4.5-8.1 12.7-13.2 21.6-13.4 6.8-.1 13.1 4.6 17.3 4.6 4.2 0 11.5-5.5 20.1-5z" fill-rule="evenodd" clip-rule="evenodd" fill="#fff"/></svg>