<svg xmlns="http://www.w3.org/2000/svg" viewBox="0 0 450.5 450.5"><path d="M352 238c-.2-36.8 16.4-64.5 50.1-84.9-18.8-26.9-47.3-41.8-84.8-44.7-35.6-2.8-74.4 20.7-88.6 20.7-15 0-49.5-19.7-76.5-19.7-56 .9-115.4 44.6-115.4 133.4 0 26.2 4.8 53.4 14.4 81.3C64 360.9 110.3 451 158.6 449.5c25.2-.6 43.1-17.9 75.9-17.9 31.9 0 48.4 17.9 76.5 17.9 48.7-.7 90.5-82.6 102.8-119.5-65.3-30.7-61.8-90.1-61.8-92zM295.3 73.6c27.3-32.5 24.8-62 24-72.6-24.1 1.4-52.1 16.4-68 35-17.5 19.8-27.8 44.4-25.6 72 26.1 1.9 49.9-11.5 69.6-34.4z"/></svg>