<svg xmlns="http://www.w3.org/2000/svg" viewBox="0 0 450.5 450.5"><path fill="#6399a8" d="M0 301.6h181.4L252 148.9H70.6z"/><path d="M301.7 186.1c-12.6.2-23.3 5.4-31.2 16.7h-.4v-53.9H252v148.2h17.1v-13.4h.4c3.7 6 11.3 16.5 29.7 16.5 36.7 0 47.5-34.5 47.5-60.2 0-30.4-16.3-53.9-45-53.9zm-2.9 98.4c-11.5 0-29.5-7.6-29.5-36.3 0-17.5 2.9-45.8 29.1-45.8 28.1 0 29.5 26.6 29.5 40.4 0 23.7-9.3 41.7-29.1 41.7zm108.6-82.1c15.3 0 23.3 8.7 25.6 23.1h17.5c-1.4-18.8-12.2-39.4-40.4-39.4-35.7 0-51.8 26.6-51.8 60 0 31.2 17.9 54.1 48.3 54.1 31.6 0 42.1-24.1 43.9-41.3H433c-3.1 16.5-13.6 25.6-25.8 25.6-25 0-29.5-22.9-29.5-41.5 0-19.2 7.2-40.6 29.7-40.6z" fill="#fff"/></svg>