<svg id="logo" xmlns="http://www.w3.org/2000/svg" viewBox="0 0 450.5 450.5"><style>.st1{fill:#fff}</style><path d="M65.6 245.5H1.3l30-55.3h64.3l-30 55.3z" fill="#6399a8"/><path class="st1" d="M114.7 211.3c-7.2 0-10.9 5.7-10.9 14.2 0 8.1 4 14.1 10.9 14.1 7.8 0 10.7-7.1 10.7-14.1 0-7.3-3.6-14.2-10.7-14.2m-19.2-21.2h8.6v20.5h.2c2.3-3.9 7.2-6.3 11.6-6.3 12.2 0 18.2 9.6 18.2 21.4 0 10.8-5.3 21-16.8 21-5.3 0-10.9-1.3-13.5-6.6h-.1v5.5h-8.1l-.1-55.5m84.6 49.5c-4.9.1-5.4.1-5.8.1-1.6 0-2-.9-2-3V216c0-8.5-8-11.7-15.6-11.7-8.6 0-17.1 3-17.7 13.4h8.6c.4-4.4 3.8-6.4 8.6-6.4 3.5 0 8 .9 8 5.4 0 5.2-5.5 4.5-11.6 5.7-7.2.9-15 2.5-15 12.5 0 7.8 6.3 11.7 13.3 11.7 4.6 0 10.1-1.5 13.5-4.9.7 3.6 3.2 4.9 6.6 4.9l9.4-.6-.3-6.4zm-16.4-7.5c0 5.6-5.9 7.6-9.6 7.6-3 0-7.9-1.2-7.9-5.1 0-4.7 3.3-6.1 7-6.7 3.8-.7 7.9-.6 10.5-2.4v6.6z"/><path class="st1" d="M200.4 204.3c-5.1 0-9.5 2.7-12.1 7.1l-.1-.2v-5.9H180v34.2l.4 6.5 8.2-.5v-23.7c0-5.9 3.7-10.6 9.4-10.6 5 0 7.4 2.7 7.6 9v25.2h8.6V218c-.1-9-5.4-13.7-13.8-13.7m38.7 35.4c7.7 0 10.9-7.2 10.9-14.2 0-8.9-4.1-14.1-10.7-14.1-8 0-10.9 7.4-10.9 14.6-.1 6.8 3.2 13.7 10.7 13.7m19.1 5.9h-8.1v-5.4h-.1c-2.3 4.6-7.1 6.5-12 6.5-12.2 0-18.2-9.4-18.2-21.4 0-14.5 8.3-20.9 16.8-20.9 4.9 0 10.3 1.9 12.9 6.3h.2v-20.5h8.6l-.1 55.4m34.1-26.7c-.7-4.9-4.1-7.5-8.9-7.5-4.4 0-10.7 2.4-10.7 14.6 0 6.7 2.9 13.8 10.3 13.8 5 0 8.4-3.4 9.2-9.2h8.6c-1.6 10.4-7.8 16.2-17.8 16.2-12.2 0-18.9-8.9-18.9-20.7 0-12.1 6.4-21.6 19.2-21.6 9 0 16.7 4.7 17.5 14.5l-8.5-.1m54.4 20.7c-4.9.1-5.4.1-5.8.1-1.6 0-2-.9-2-3V216c0-8.5-8-11.7-15.6-11.7-8.6 0-17.1 3-17.7 13.4h8.6c.4-4.4 3.8-6.4 8.6-6.4 3.5 0 8 .9 8 5.4 0 5.2-5.5 4.5-11.6 5.7-7.2.9-15 2.5-15 12.5 0 7.8 6.3 11.7 13.3 11.7 4.6 0 10.1-1.5 13.5-4.9.7 3.6 3.2 4.9 6.6 4.9l9.4-.6-.3-6.4zm-16.4-7.5c0 5.6-5.9 7.6-9.6 7.6-3 0-7.9-1.2-7.9-5.1 0-4.7 3.3-6.1 7-6.7 3.8-.7 7.9-.6 10.5-2.4v6.6z"/><path class="st1" d="M390 204.3c-5.6 0-9.3 2.6-12.2 6.7-1.7-4.6-6.2-6.7-10.9-6.7-6.2 0-9.4 2.7-11.9 6.7h-.2v-5.6h-8.1v34.2l.4 6.5 8.2-.5v-23.8c0-6.7 4.1-10.4 8.5-10.4 5.2 0 6.8 3 6.8 8.5v25.8h8.6V222c0-6.8 2.5-10.7 8.3-10.7 6.7 0 7.1 4.4 7.1 10.8v23.5h8.6v-27.7c-.2-9.8-5-13.6-13.2-13.6m39.9 7c-7.2 0-10.9 5.7-10.9 14.2 0 8.1 4 14.1 10.9 14.1 7.8 0 10.7-7.1 10.7-14.1 0-7.3-3.7-14.2-10.7-14.2m-19.2-5.9h8.1v5.4h.2c2.4-4.6 7.1-6.5 12-6.5 12.2 0 18.2 9.6 18.2 21.4 0 10.8-5.3 21-16.8 21-5 0-10.3-1.9-13-6.3h-.2v20h-8.6l.1-55z"/></svg>