<svg xmlns="http://www.w3.org/2000/svg" viewBox="0 0 450.5 450.5"><path d="M361.6 236.2V227h79v18.4h-79v-9.2zm0-29.4v-9.2h79V216h-79v-9.2zm0-29.4v-9.2h79v18.4h-79v-9.2zm0-30.3v-9.2h79v19.3h-79v-10.1zm0-28.5v-10.1h79v20.2h-79v-10.1z" fill="#b1e3fa"/><path d="M185.3 236.2V227h79v18.4h-79v-9.2zm0-29.4v-9.2h79V216h-79v-9.2zm0-29.4v-9.2h79v18.4h-79v-9.2zm0-30.3v-9.2h79v19.3h-79v-10.1z" fill="#f7bacf"/><path d="M273.5 236.2V227h79v18.4h-79v-9.2zm0-29.4v-9.2h79V216h-79v-9.2z" fill="#e7ee9f"/><path d="M98.1 324.3v-9.2h77.1v18.4H98.1v-9.2zm0-30.3v-9.2h77.1v18.4H98.1V294zm0-29.4v-9.2h77.1v18.4H98.1v-9.2z" fill="#feea3a"/><path d="M9.9 236.2V227H87v18.4H9.9v-9.2zm0-29.4v-9.2H87V216H9.9v-9.2z" fill="#fe9d7f"/><path d="M362.6 324.3v-9.2h77.1v18.4h-77.1v-9.2zm0-30.3v-9.2h77.1v18.4h-77.1V294zm0-29.4v-9.2h77.1v18.4h-77.1v-9.2z" fill="#4ec2f6"/><path d="M274.4 324.3v-9.2h77.1v18.4h-77.1v-9.2zm0-30.3v-9.2h77.1v18.4h-77.1V294zm0-29.4v-9.2h77.1v18.4h-77.1v-9.2z" fill="#ccdb38"/><path d="M186.2 324.3v-9.2h77.1v18.4h-77.1v-9.2zm0-30.3v-9.2h77.1v18.4h-77.1V294zm0-29.4v-9.2h77.1v18.4h-77.1v-9.2z" fill="#fe3f80"/><path d="M9.9 324.3v-9.2H87v18.4H9.9v-9.2zm0-30.3v-9.2H87v18.4H9.9V294zm0-29.4v-9.2H87v18.4H9.9v-9.2z" fill="#fe3d02"/></svg>