<svg xmlns="http://www.w3.org/2000/svg" viewBox="0 0 450.5 450.5"><path d="M434 206c-6.7 0-11.4 3.2-13.8 8.6V206h-15.6v57.5h15.6v-37.1c0-5.9 3.2-9.1 8-9.1 4.5 0 7.3 4.2 7.3 8.5v1.6h15.1V223c-.1-9.8-6.3-17-16.6-17zm-59.8 45.4c-8.2 0-15-5-15.2-13.8h39c.5-2.2.7-4.5.7-7 0-15.8-10.8-24.7-26.7-24.7-17 0-28.6 12.1-28.6 28.4 0 18.2 12.9 29.2 30.7 29.2 13.4 0 22.6-5.6 26.6-16.8l-13.2-5.2c-1.8 6.6-6.3 9.9-13.3 9.9zm-2.1-34.2c6.9 0 11.7 3.7 11.7 9.6l-.1.5H359c1.5-6.4 6.8-10.1 13.1-10.1zm-216.9-2.6c-3.5-6-10-8.6-18.2-8.6-15.9 0-27.4 10.9-27.4 29 0 17.8 11 28.5 27.3 28.5 8.1 0 15-2.3 18.8-8.2v8.2h14.9v-85h-15.5v36.1zm-14.7 36.9c-8.6 0-15.3-6.4-15.3-16.6 0-10.4 6.7-16.9 15.3-16.9 8.3 0 15.3 6.6 15.3 16.9-.1 10.2-7 16.6-15.3 16.6zm200.9-32.8v-12.8h-50.1v13.4h30.6l-31.6 30.9v13.3h52v-14h-32.6zM263 251.4c-8.2 0-15-5-15.2-13.8h39c.5-2.2.7-4.5.7-7 0-15.8-10.8-24.7-26.7-24.7-17 0-28.6 12.1-28.6 28.4 0 18.2 12.9 29.2 30.7 29.2 13.4 0 22.6-5.6 26.6-16.8l-13.2-5.2c-1.7 6.6-6.2 9.9-13.3 9.9zm-2-34.2c6.9 0 11.7 3.7 11.7 9.6l-.1.5h-24.7c1.4-6.4 6.7-10.1 13.1-10.1zm-55.4 34.2c-8.2 0-15-5-15.2-13.8h39c.5-2.2.7-4.5.7-7 0-15.8-10.8-24.7-26.7-24.7-17 0-28.6 12.1-28.6 28.4 0 18.2 12.9 29.2 30.7 29.2 13.4 0 22.6-5.6 26.6-16.8l-13.2-5.2c-1.7 6.6-6.2 9.9-13.3 9.9zm-2.1-34.2c6.9 0 11.7 3.7 11.7 9.6l-.1.5h-24.7c1.5-6.4 6.8-10.1 13.1-10.1z" fill="#fff"/><path d="M69.2 205.9h19.1v11.2H69.2v-11.2z" fill-rule="evenodd" clip-rule="evenodd" fill="#40ab5d"/><linearGradient id="a" gradientUnits="userSpaceOnUse" x1="-343.639" y1="281.49" x2="-343.678" y2="278.993" gradientTransform="translate(1652.535 -1056.414) scale(4.5795)"><stop offset="0" stop-color="#358c7b"/><stop offset=".526" stop-color="#33a65e"/></linearGradient><path d="M69.2 221.4h19.1v11.2H69.2v-11.2z" fill-rule="evenodd" clip-rule="evenodd" fill="url(#a)"/><linearGradient id="b" gradientUnits="userSpaceOnUse" x1="-345.807" y1="284.725" x2="-341.51" y2="282.536" gradientTransform="translate(1652.535 -1056.414) scale(4.5795)"><stop offset="0" stop-color="#222b90"/><stop offset="1" stop-color="#367b99"/></linearGradient><path d="M69.2 236.9h19.1v11.2H69.2v-11.2z" fill-rule="evenodd" clip-rule="evenodd" fill="url(#b)"/><linearGradient id="c" gradientUnits="userSpaceOnUse" x1="-360.855" y1="287.013" x2="-356.686" y2="287.013" gradientTransform="translate(1652.535 -1056.414) scale(4.5795)"><stop offset="0" stop-color="#f90"/><stop offset="1" stop-color="#ff8000"/></linearGradient><path d="M0 252.4h19.1v11.2H0v-11.2z" fill-rule="evenodd" clip-rule="evenodd" fill="url(#c)"/><linearGradient id="d" gradientUnits="userSpaceOnUse" x1="-355.816" y1="287.013" x2="-351.647" y2="287.013" gradientTransform="translate(1652.535 -1056.414) scale(4.5795)"><stop offset="0" stop-color="#ff8000"/><stop offset="1" stop-color="#cc1953"/></linearGradient><path d="M23.1 252.4h19.1v11.2H23.1v-11.2z" fill-rule="evenodd" clip-rule="evenodd" fill="url(#d)"/><linearGradient id="e" gradientUnits="userSpaceOnUse" x1="-350.777" y1="287.013" x2="-346.608" y2="287.013" gradientTransform="translate(1652.535 -1056.414) scale(4.5795)"><stop offset="0" stop-color="#cc1953"/><stop offset="1" stop-color="#241284"/></linearGradient><path d="M46.2 252.4h19.1v11.2H46.2v-11.2z" fill-rule="evenodd" clip-rule="evenodd" fill="url(#e)"/><linearGradient id="f" gradientUnits="userSpaceOnUse" x1="-345.743" y1="287.013" x2="-341.574" y2="287.013" gradientTransform="translate(1652.535 -1056.414) scale(4.5795)"><stop offset="0" stop-color="#222b90"/><stop offset="1" stop-color="#3559a6"/></linearGradient><path d="M69.2 252.4h19.1v11.2H69.2v-11.2z" fill-rule="evenodd" clip-rule="evenodd" fill="url(#f)"/><linearGradient id="g" gradientUnits="userSpaceOnUse" x1="-350.942" y1="284.288" x2="-346.444" y2="282.973" gradientTransform="translate(1652.535 -1056.414) scale(4.5795)"><stop offset="0" stop-color="#cc1953"/><stop offset="1" stop-color="#241284"/></linearGradient><path d="M46.2 236.9h19.1v11.2H46.2v-11.2z" fill-rule="evenodd" clip-rule="evenodd" fill="url(#g)"/><linearGradient id="h" gradientUnits="userSpaceOnUse" x1="-355.969" y1="282.818" x2="-351.504" y2="284.443" gradientTransform="translate(1652.535 -1056.414) scale(4.5795)"><stop offset=".003" stop-color="#fc0"/><stop offset="1" stop-color="#ce1938"/></linearGradient><path d="M23.1 236.9h19.1v11.2H23.1v-11.2z" fill-rule="evenodd" clip-rule="evenodd" fill="url(#h)"/><linearGradient id="i" gradientUnits="userSpaceOnUse" x1="-355.47" y1="278.649" x2="-352.003" y2="281.849" gradientTransform="translate(1652.535 -1056.414) scale(4.5795)"><stop offset=".003" stop-color="#ffd100"/><stop offset="1" stop-color="#fd5a22"/></linearGradient><path d="M23.1 221.4h19.1v11.2H23.1v-11.2z" fill-rule="evenodd" clip-rule="evenodd" fill="url(#i)"/></svg>