<svg xmlns="http://www.w3.org/2000/svg" viewBox="0 0 450.5 450.5"><path d="M72.7 152.3c-38.2 0-69.2 31-69.2 69.2s31 69.2 69.2 69.2 69.2-31 69.2-69.2c.1-38.2-30.9-69.2-69.2-69.2zm31.8 99.8c-1.2 2-3.9 2.7-5.9 1.4-16.3-9.9-36.7-12.2-60.8-6.7-2.3.5-4.6-.9-5.2-3.2-.5-2.3.9-4.6 3.2-5.2 26.4-6 49-3.4 67.2 7.7 2.1 1.3 2.7 4 1.5 6zm8.5-18.8c-1.6 2.5-4.9 3.3-7.4 1.8-18.6-11.4-47-14.8-69-8.1-2.9.9-5.9-.7-6.7-3.6-.9-2.9.7-5.9 3.6-6.7 25.1-7.6 56.4-3.9 77.8 9.2 2.4 1.5 3.2 4.8 1.7 7.4zm.7-19.7c-22.3-13.3-59.1-14.5-80.4-8-3.4 1-7-.9-8.1-4.3-1-3.4.9-7 4.3-8.1 24.5-7.4 65.1-6 90.8 9.3 3.1 1.8 4.1 5.8 2.3 8.9-1.9 3.1-5.8 4.1-8.9 2.2zm78.2 2.6c-12-2.9-14.1-4.9-14.1-9.1 0-4 3.7-6.6 9.3-6.6 5.4 0 10.7 2 16.3 6.2.2.1.4.2.6.1.2 0 .4-.1.5-.3l5.8-8.2c.2-.3.2-.8-.1-1.1-6.7-5.4-14.2-8-23-8-12.9 0-21.9 7.7-21.9 18.8 0 11.9 7.8 16.1 21.2 19.3 11.4 2.6 13.4 4.8 13.4 8.8 0 4.4-3.9 7.1-10.2 7.1-7 0-12.7-2.4-19-7.9-.2-.1-.4-.2-.6-.2-.2 0-.4.1-.5.3l-6.5 7.8c-.3.3-.2.8.1 1.1 7.4 6.6 16.5 10.1 26.4 10.1 13.9 0 22.9-7.6 22.9-19.4-.1-9.8-6.1-15.3-20.6-18.8zm51.9-11.8c-6 0-11 2.4-15.1 7.2v-5.5c0-.4-.4-.8-.8-.8h-10.7c-.4 0-.8.4-.8.8V267c0 .4.3.8.8.8H228c.4 0 .8-.4.8-.8v-19.2c4.1 4.6 9 6.8 15.1 6.8 11.2 0 22.5-8.6 22.5-25.1s-11.3-25.1-22.6-25.1zm10.1 25.1c0 8.4-5.2 14.3-12.6 14.3-7.3 0-12.8-6.1-12.8-14.3 0-8.1 5.5-14.3 12.8-14.3 7.3.1 12.6 6.1 12.6 14.3zm41.5-25.1c-14.4 0-25.7 11.1-25.7 25.3 0 14 11.2 25 25.6 25 14.5 0 25.8-11.1 25.8-25.2s-11.3-25.1-25.7-25.1zm0 39.4c-7.7 0-13.5-6.2-13.5-14.3 0-8.2 5.6-14.2 13.3-14.2 7.7 0 13.5 6.2 13.5 14.3.1 8.3-5.5 14.2-13.3 14.2zm56.5-38.4h-11.8v-12c0-.4-.3-.8-.8-.8h-10.7c-.4 0-.8.4-.8.8v12h-5.1c-.4 0-.8.4-.8.8v9.2c0 .4.3.8.8.8h5.1V240c0 9.6 4.8 14.5 14.2 14.5 3.8 0 7-.8 10-2.5.2-.1.4-.4.4-.7v-8.8c0-.3-.1-.5-.4-.7-.2-.1-.5-.2-.8 0-2.1 1-4.1 1.5-6.3 1.5-3.4 0-5-1.6-5-5.1v-22.1h11.8c.4 0 .8-.4.8-.8v-9.2c.2-.4-.2-.7-.6-.7zm41 0v-1.5c0-4.4 1.7-6.3 5.4-6.3 2.2 0 4 .4 6 1.1.2.1.5 0 .7-.1.2-.1.3-.4.3-.6v-9c0-.3-.2-.6-.6-.8-2.1-.6-4.8-1.3-8.9-1.3-9.9 0-15.1 5.6-15.1 16.1v2.3h-5.1c-.4 0-.8.4-.8.8v9.2c0 .4.4.8.8.8h5.1v36.7c0 .4.3.8.8.8h10.7c.4 0 .8-.4.8-.8v-36.7h10l15.3 36.7c-1.7 3.9-3.4 4.6-5.8 4.6-1.9 0-3.9-.6-5.9-1.7-.2-.1-.4-.1-.6-.1-.2.1-.4.2-.5.4l-3.6 8c-.2.4 0 .8.3 1 3.8 2.1 7.2 2.9 11.4 2.9 7.9 0 12.3-3.7 16.1-13.6l18.6-48c.1-.2.1-.5-.1-.7-.1-.2-.4-.3-.6-.3h-11.1c-.3 0-.6.2-.7.5l-11.4 32.6-12.5-32.6c-.1-.3-.4-.5-.7-.5l-18.3.1zm-23.8 0h-10.7c-.4 0-.8.4-.8.8v46.7c0 .4.4.8.8.8h10.7c.4 0 .8-.4.8-.8v-46.7c0-.5-.3-.8-.8-.8zm-5.3-21.3c-4.2 0-7.7 3.4-7.7 7.7 0 4.2 3.4 7.7 7.7 7.7 4.2 0 7.7-3.4 7.7-7.7 0-4.3-3.4-7.7-7.7-7.7z" fill="#2ebd59"/></svg>