<svg xmlns="http://www.w3.org/2000/svg" viewBox="0 0 450.5 450.5"><path d="M225.3 1.3c-123.7 0-224 100.3-224 224s100.3 223.9 223.9 223.9 223.9-100.3 223.9-223.9c.1-123.7-100.2-224-223.8-224zm102.7 323c-4 6.6-12.6 8.7-19.2 4.6-52.6-32.1-118.8-39.4-196.7-21.6-7.5 1.7-15-3-16.7-10.5-1.7-7.5 3-15 10.5-16.7 85.3-19.5 158.5-11.1 217.5 25 6.5 4.1 8.6 12.6 4.6 19.2zm27.4-61c-5.1 8.2-15.8 10.8-24 5.7-60.2-37-152-47.7-223.1-26.1-9.2 2.8-19-2.4-21.8-11.6-2.8-9.2 2.4-19 11.6-21.8 81.3-24.7 182.4-12.7 251.5 29.8 8.2 5.1 10.8 15.8 5.8 24zm2.3-63.5C285.5 157 166.5 153 97.6 173.9c-11.1 3.4-22.8-2.9-26.1-14-3.3-11.1 2.9-22.8 14-26.1 79.1-24 210.6-19.4 293.7 29.9 9.9 5.9 13.2 18.8 7.3 28.7-6 10.1-18.8 13.4-28.8 7.4z" fill="#2ebd59"/></svg>